<svg width="84" height="33" viewBox="0 0 84 33" fill="none" xmlns="http://www.w3.org/2000/svg">
<path d="M2.2 32.32C2.2 32.32 2.16 32.2933 2.08 32.24C2 32.2133 1.89333 32.1867 1.76 32.16C1.65333 32.1333 1.52 32.12 1.36 32.12C0.933333 32.0133 0.626667 31.7733 0.44 31.4C0.253333 31.0533 0.213333 30.6667 0.32 30.24C0.426667 30.1333 0.506667 29.9067 0.56 29.56C0.613334 29.2133 0.64 28.9333 0.64 28.72C0.746667 28.5067 0.813334 28.36 0.84 28.28C0.866667 28.1733 0.933333 27.9067 1.04 27.48C1.12 27.0267 1.25333 26.4 1.44 25.6C1.65333 24.7733 1.88 23.8933 2.12 22.96C2.38667 22.0267 2.64 21.1333 2.88 20.28C3.12 19.4267 3.33333 18.7067 3.52 18.12C3.73333 17.5333 3.88 17.2 3.96 17.12C3.96 17.12 3.96 17.08 3.96 17C3.96 16.8933 3.96 16.7867 3.96 16.68C3.96 16.68 3.97333 16.56 4 16.32C4.05333 16.0533 4.18667 15.76 4.4 15.44C4.50667 15.1467 4.6 14.8267 4.68 14.48C4.76 14.1333 4.8 13.9067 4.8 13.8C4.90667 13.6667 5.05333 13.3467 5.24 12.84C5.45333 12.3067 5.65333 11.7867 5.84 11.28C6 10.8533 6.17333 10.4 6.36 9.92C6.57333 9.44 6.74667 9.02667 6.88 8.68C7.04 8.33333 7.12 8.16 7.12 8.16C7.12 8.05333 7.12 8 7.12 8C7.12 7.97333 7.12 7.96 7.12 7.96C7.22667 7.85333 7.48 7.32 7.88 6.36C8.30667 5.37333 8.88 4.10667 9.6 2.56C9.70667 2.34667 9.84 2.10667 10 1.84C10.16 1.57333 10.24 1.38667 10.24 1.28C10.3733 1.06667 10.56 0.973332 10.8 0.999998C11.04 0.999998 11.28 1.08 11.52 1.24C11.7867 1.4 11.9867 1.62667 12.12 1.92L12.52 2.56L11.08 5.44C10.6533 6.18666 10.2933 6.86666 10 7.48C9.73333 8.09333 9.6 8.45333 9.6 8.56C9.6 8.56 9.52 8.77333 9.36 9.2C9.2 9.62667 9.01333 10.1333 8.8 10.72C8.58667 11.3067 8.4 11.84 8.24 12.32C7.94667 13.1467 7.66667 13.8267 7.4 14.36C7.16 14.8933 7.04 15.2133 7.04 15.32C7.04 15.2667 7.33333 15.2267 7.92 15.2C8.50667 15.1733 9.25333 15.16 10.16 15.16C11.0667 15.16 11.9867 15.16 12.92 15.16C13.88 15.1333 14.72 15.12 15.44 15.12C16.1867 15.0933 16.6933 15.0533 16.96 15L19.04 14.8L20.4 10.68C20.6133 9.93333 20.8933 9.02667 21.24 7.96C21.5867 6.89333 21.8933 5.98666 22.16 5.24C22.5867 4.01333 22.92 3.25333 23.16 2.96C23.4 2.66666 23.68 2.52 24 2.52C24.08 2.52 24.1867 2.54666 24.32 2.6C24.48 2.62667 24.6267 2.69333 24.76 2.8C24.92 2.88 25.0267 3 25.08 3.16C25.4 3.45333 25.5467 3.78666 25.52 4.16C25.52 4.53333 25.3067 5.02666 24.88 5.64C24.4533 6.36 24.0933 7.14667 23.8 8C23.5333 8.82667 23.2933 9.50667 23.08 10.04C23.08 10.36 23.04 10.6267 22.96 10.84C22.88 11.0267 22.7867 11.1733 22.68 11.28C22.6267 11.3333 22.52 11.5333 22.36 11.88C22.2 12.2267 22.0533 12.5733 21.92 12.92C21.7867 13.2667 21.72 13.48 21.72 13.56C21.72 13.7467 21.68 13.9733 21.6 14.24C21.52 14.5067 21.4267 14.6933 21.32 14.8C21.2667 14.96 21.1467 15.36 20.96 16C20.7733 16.64 20.56 17.4 20.32 18.28C20.08 19.1333 19.8267 19.9733 19.56 20.8C19.2933 21.6 19.0533 22.2667 18.84 22.8C18.84 22.9867 18.7733 23.2267 18.64 23.52C18.5067 23.7867 18.44 24.0267 18.44 24.24C18.3333 24.56 18.2 24.96 18.04 25.44C17.88 25.92 17.8 26.2267 17.8 26.36C17.6667 26.9733 17.52 27.6 17.36 28.24C17.2267 28.88 17.1067 29.4267 17 29.88C16.92 30.36 16.88 30.64 16.88 30.72C16.7733 30.8267 16.6133 30.84 16.4 30.76C16.1867 30.68 15.9333 30.5867 15.64 30.48C15.1333 30.1867 14.8267 29.8667 14.72 29.52C14.64 29.2 14.7467 28.7333 15.04 28.12C15.1733 27.9067 15.3333 27.3867 15.52 26.56C15.7333 25.7067 15.9467 24.8667 16.16 24.04C16.32 23.64 16.4933 23.1067 16.68 22.44C16.8667 21.7467 17.0533 21.0533 17.24 20.36C17.4267 19.64 17.5867 19.04 17.72 18.56C17.8533 18.0533 17.9467 17.7733 18 17.72C18 17.6133 18 17.52 18 17.44C18 17.36 18 17.32 18 17.32C17.9467 17.2667 17.6133 17.2267 17 17.2C16.3867 17.1467 15.6267 17.1333 14.72 17.16C13.8133 17.16 12.8667 17.1867 11.88 17.24C10.92 17.2667 10.0533 17.3333 9.28 17.44C8.98667 17.44 8.65333 17.44 8.28 17.44C7.90667 17.44 7.61333 17.44 7.4 17.44C7.10667 17.44 6.85333 17.44 6.64 17.44C6.45333 17.44 6.36 17.44 6.36 17.44C6.33333 17.52 6.24 17.8 6.08 18.28C5.92 18.76 5.73333 19.3467 5.52 20.04C5.30667 20.7067 5.08 21.4 4.84 22.12C4.62667 22.8133 4.44 23.4533 4.28 24.04C4.14667 24.6 4.05333 25 4 25.24C3.89333 25.72 3.74667 26.32 3.56 27.04C3.4 27.76 3.21333 28.4933 3 29.24C2.81333 30.0133 2.64 30.68 2.48 31.24C2.34667 31.8 2.25333 32.16 2.2 32.32ZM26.2991 28.4C25.9524 28.4 25.6724 28.3333 25.4591 28.2C25.2724 28.0667 25.0324 27.88 24.7391 27.64C24.2324 27.1067 23.8724 26.6 23.6591 26.12C23.4457 25.6133 23.3791 25.1333 23.4591 24.68C23.5391 24.4667 23.5657 24.2667 23.5391 24.08C23.5391 23.8667 23.5391 23.76 23.5391 23.76C23.4057 23.6267 23.3657 23.5467 23.4191 23.52C23.4724 23.4667 23.5257 23.3867 23.5791 23.28C23.7391 23.28 23.7924 23.1333 23.7391 22.84C23.6857 22.6267 23.7924 22.16 24.0591 21.44C24.3257 20.72 24.6591 20.04 25.0591 19.4C25.2191 19.1333 25.4591 18.7867 25.7791 18.36C26.0991 17.9067 26.4457 17.4667 26.8191 17.04C27.2191 16.5867 27.5791 16.2267 27.8991 15.96C28.5657 15.4 29.1524 14.9867 29.6591 14.72C30.1657 14.4533 30.7124 14.2533 31.2991 14.12C31.8857 13.9867 32.2857 13.92 32.4991 13.92C32.7391 13.92 33.0591 14.1333 33.4591 14.56C34.0724 14.8267 34.5124 15.1467 34.7791 15.52C35.0724 15.8933 35.2591 16.44 35.3391 17.16C35.4191 17.96 35.3524 18.88 35.1391 19.92C34.9524 20.9333 34.3257 22.2 33.2591 23.72C32.5924 24.68 31.9791 25.4 31.4191 25.88C30.8591 26.3333 30.1924 26.7867 29.4191 27.24C28.8591 27.6133 28.3524 27.8933 27.8991 28.08C27.4457 28.24 26.9124 28.3467 26.2991 28.4ZM30.1391 24.16C30.7791 23.44 31.2857 22.76 31.6591 22.12C32.0591 21.48 32.4324 20.6667 32.7791 19.68C32.8857 19.3867 32.9524 19.0267 32.9791 18.6C33.0057 18.1467 32.9924 17.7333 32.9391 17.36C32.9124 16.96 32.8191 16.7333 32.6591 16.68C32.3391 16.4933 31.9524 16.44 31.4991 16.52C31.0457 16.5733 30.5524 16.8267 30.0191 17.28C29.1924 17.9733 28.4724 18.84 27.8591 19.88C27.2457 20.8933 26.6457 22.0533 26.0591 23.36C25.6591 24.32 25.5657 25.0933 25.7791 25.68C26.0191 26.24 26.5124 26.44 27.2591 26.28C28.0324 26.0933 28.9924 25.3867 30.1391 24.16ZM47.0406 28.92C46.854 29.0267 46.6006 28.9867 46.2806 28.8C45.9873 28.6133 45.694 28.3333 45.4006 27.96C45.214 27.64 45.0806 27.2933 45.0006 26.92C44.9473 26.5467 44.9206 26.0267 44.9206 25.36C44.9473 24.8267 44.9206 24.48 44.8406 24.32C44.7873 24.16 44.6406 24.1867 44.4006 24.4C44.1606 24.5867 43.7473 24.9733 43.1606 25.56C42.494 26.2267 41.854 26.7467 41.2406 27.12C40.654 27.4933 40.174 27.6667 39.8006 27.64C39.614 27.64 39.4006 27.5467 39.1606 27.36C38.9473 27.1467 38.7473 26.8933 38.5606 26.6C38.374 26.28 38.214 25.96 38.0806 25.64C37.9206 25.0533 37.894 24.3067 38.0006 23.4C38.134 22.4667 38.3473 21.4933 38.6406 20.48C38.934 19.4667 39.2673 18.5067 39.6406 17.6C40.0406 16.6933 40.4406 15.96 40.8406 15.4C41.2673 14.84 41.6406 14.56 41.9606 14.56C42.174 14.56 42.3606 14.6667 42.5206 14.88C42.7073 15.0933 42.894 15.4267 43.0806 15.88C43.1873 16.0667 43.2273 16.2267 43.2006 16.36C43.2006 16.4933 43.094 16.6533 42.8806 16.84C42.6406 17.16 42.3606 17.64 42.0406 18.28C41.7473 18.92 41.454 19.6133 41.1606 20.36C40.894 21.1067 40.654 21.8267 40.4406 22.52C40.2273 23.2133 40.0806 23.7867 40.0006 24.24C39.9206 24.6667 39.934 24.88 40.0406 24.88C40.414 24.88 40.854 24.7333 41.3606 24.44C41.894 24.12 42.4006 23.7333 42.8806 23.28C43.4406 22.72 43.934 22.1067 44.3606 21.44C44.814 20.7733 45.2673 20.0667 45.7206 19.32C46.0673 18.7867 46.4273 18.2 46.8006 17.56C47.2006 16.92 47.454 16.4667 47.5606 16.2C47.934 15.5067 48.214 15.04 48.4006 14.8C48.5873 14.5333 48.814 14.36 49.0806 14.28C49.214 14.28 49.334 14.28 49.4406 14.28C49.574 14.28 49.6406 14.28 49.6406 14.28C49.8006 14.3067 49.9873 14.4267 50.2006 14.64C50.414 14.7467 50.534 14.8533 50.5606 14.96C50.5873 15.04 50.6006 15.1467 50.6006 15.28C50.494 15.5467 50.3206 15.9467 50.0806 16.48C49.8673 16.9867 49.7073 17.36 49.6006 17.6C49.094 18.7467 48.5873 19.88 48.0806 21C47.6006 22.0933 47.254 23.2133 47.0406 24.36C46.9873 24.7333 46.974 25.1733 47.0006 25.68C47.054 26.16 47.134 26.5067 47.2406 26.72C47.3206 26.88 47.414 27.0667 47.5206 27.28C47.654 27.4667 47.8006 27.6267 47.9606 27.76C48.2006 27.92 48.2406 28.0933 48.0806 28.28C47.9473 28.4667 47.7606 28.6267 47.5206 28.76C47.2806 28.8667 47.1206 28.92 47.0406 28.92ZM62.9253 29.76C62.5786 29.84 62.2853 29.7867 62.0453 29.6C61.832 29.44 61.672 29.2 61.5653 28.88C61.352 28.2667 61.192 27.6 61.0853 26.88C61.0053 26.1333 60.992 25.48 61.0453 24.92L61.1253 24.08L59.5653 25.32C58.6586 26.12 57.7786 26.6933 56.9253 27.04C56.0986 27.3867 55.3653 27.56 54.7253 27.56C54.432 27.5067 54.1386 27.4 53.8453 27.24C53.552 27.08 53.2853 26.88 53.0453 26.64C52.832 26.4 52.6586 26.1467 52.5253 25.88C52.3653 25.5067 52.312 25 52.3653 24.36C52.4453 23.72 52.6053 23.0267 52.8453 22.28C53.112 21.5067 53.432 20.76 53.8053 20.04C54.2053 19.2933 54.6586 18.64 55.1653 18.08C56.0453 16.7467 56.992 15.9333 58.0053 15.64C59.0186 15.3467 60.0186 15.4933 61.0053 16.08C61.6986 16.3733 62.1253 16.5067 62.2853 16.48C62.472 16.4533 62.632 16.1467 62.7653 15.56C62.872 15.1333 62.9786 14.7067 63.0853 14.28C63.192 13.8267 63.3653 13.2267 63.6053 12.48C64.272 10.4533 64.8453 8.86667 65.3253 7.72C65.832 6.57333 66.2853 5.57333 66.6853 4.72C66.9786 4.10666 67.2186 3.73333 67.4053 3.6C67.6186 3.44 67.832 3.37333 68.0453 3.4C68.3386 3.4 68.6053 3.50667 68.8453 3.72C69.0853 3.93333 69.272 4.22667 69.4053 4.6C69.512 4.84 69.552 5.05333 69.5253 5.24C69.5253 5.4 69.4453 5.62667 69.2853 5.92C68.9386 6.56 68.5253 7.41333 68.0453 8.48C67.592 9.52 67.1253 10.6667 66.6453 11.92C66.192 13.1733 65.7653 14.4133 65.3653 15.64C64.9653 16.8667 64.632 17.9467 64.3653 18.88C64.2053 19.4667 64.0586 20.2133 63.9253 21.12C63.8186 22.0267 63.7253 22.96 63.6453 23.92C63.5653 24.8533 63.512 25.6933 63.4853 26.44C63.4853 27.16 63.512 27.6267 63.5653 27.84C63.7253 28.3733 63.792 28.7733 63.7653 29.04C63.7653 29.3067 63.6986 29.48 63.5653 29.56C63.432 29.6667 63.2186 29.7333 62.9253 29.76ZM56.1653 25.32C56.5386 25.24 56.8986 25.0933 57.2453 24.88C57.6186 24.6667 58.0053 24.4133 58.4053 24.12C59.2053 23.5067 59.8986 22.9467 60.4853 22.44C61.072 21.9333 61.4586 21.16 61.6453 20.12C61.6986 19.6133 61.6453 19.2133 61.4853 18.92C61.352 18.6 61.1253 18.3067 60.8053 18.04C60.4853 17.8267 60.0453 17.7467 59.4853 17.8C58.952 17.8267 58.392 18.1067 57.8053 18.64C57.1653 19.2267 56.5386 20.0133 55.9253 21C55.3386 21.9867 54.8986 23.2 54.6053 24.64C54.552 24.9067 54.632 25.12 54.8453 25.28C55.0586 25.44 55.4986 25.4533 56.1653 25.32ZM70.6284 27.68C70.3084 27.7333 69.9618 27.68 69.5884 27.52C69.2151 27.36 68.8818 27.1333 68.5884 26.84C68.3218 26.5467 68.1484 26.24 68.0684 25.92C67.9618 25.36 68.0284 24.6667 68.2684 23.84C68.5351 22.9867 68.9084 22.0933 69.3884 21.16C69.8951 20.2 70.4551 19.28 71.0684 18.4C71.7084 17.52 72.3618 16.76 73.0284 16.12C73.7218 15.4533 74.3618 15 74.9484 14.76C75.2418 14.5733 75.4684 14.4533 75.6284 14.4C75.8151 14.32 76.0018 14.3067 76.1884 14.36C76.4018 14.4133 76.7084 14.5467 77.1084 14.76C77.4818 14.8667 77.7618 14.9867 77.9484 15.12C78.1351 15.2533 78.3751 15.52 78.6684 15.92C78.8818 16.32 79.0418 16.72 79.1484 17.12C79.2551 17.52 79.3484 17.9733 79.4284 18.48C79.6418 19.1467 79.7218 19.5867 79.6684 19.8C79.6151 19.9867 79.5351 20.1333 79.4284 20.24C79.2151 20.5067 79.1618 20.64 79.2684 20.64C79.2684 20.64 79.2551 20.6933 79.2284 20.8C79.2284 20.88 79.1751 21.0133 79.0684 21.2C78.8818 21.7867 78.7351 22.4 78.6284 23.04C78.5484 23.6533 78.5618 24.16 78.6684 24.56C78.8818 25.1467 79.2684 25.4933 79.8284 25.6C80.3884 25.7067 80.9618 25.4667 81.5484 24.88C81.8418 24.6667 82.1218 24.48 82.3884 24.32C82.6551 24.1333 82.7884 24.1467 82.7884 24.36C82.7884 24.36 82.8284 24.4 82.9084 24.48C82.9884 24.5333 83.0818 24.56 83.1884 24.56C83.3218 24.56 83.4018 24.6133 83.4284 24.72C83.4818 24.8267 83.4818 24.9733 83.4284 25.16C83.4018 25.32 83.3218 25.5067 83.1884 25.72C82.7884 26.12 82.5884 26.3867 82.5884 26.52C82.5884 26.52 82.5351 26.5733 82.4284 26.68C82.3484 26.76 82.2018 26.8933 81.9884 27.08C81.5084 27.3733 80.8951 27.52 80.1484 27.52C79.4284 27.52 78.8684 27.3733 78.4684 27.08C78.0684 26.7867 77.6951 26.3867 77.3484 25.88C77.0284 25.3733 76.8151 24.9333 76.7084 24.56L76.5084 24.16L75.3484 24.92C75.0551 25.2133 74.7351 25.4933 74.3884 25.76C74.0684 26.0267 73.8551 26.2133 73.7484 26.32C73.6684 26.4267 73.5751 26.52 73.4684 26.6C73.3884 26.68 73.2951 26.72 73.1884 26.72C73.0818 26.72 72.9884 26.72 72.9084 26.72C72.8284 26.72 72.7884 26.72 72.7884 26.72C72.7884 26.8267 72.6551 26.96 72.3884 27.12C72.1484 27.28 71.8551 27.4133 71.5084 27.52C71.1884 27.6267 70.8951 27.68 70.6284 27.68ZM70.2284 25.52C70.3884 25.52 70.6684 25.4 71.0684 25.16C71.4951 24.8933 71.9618 24.5867 72.4684 24.24C73.0018 23.8933 73.4684 23.5467 73.8684 23.2C74.2951 22.8533 74.5884 22.5867 74.7484 22.4C74.8551 22.2933 75.0284 22.12 75.2684 21.88C75.5084 21.6133 75.7218 21.3867 75.9084 21.2C76.5218 20.5067 76.9484 19.7467 77.1884 18.92C77.4284 18.0667 77.4018 17.4 77.1084 16.92C77.0018 16.6267 76.8684 16.4667 76.7084 16.44C76.5484 16.4133 76.2151 16.5067 75.7084 16.72C75.3884 16.9067 74.9884 17.2667 74.5084 17.8C74.0551 18.3067 73.5618 18.9067 73.0284 19.6C72.5218 20.2667 72.0418 20.96 71.5884 21.68C71.1351 22.4 70.7618 23.0667 70.4684 23.68C70.1751 24.2933 70.0284 24.7733 70.0284 25.12C70.0284 25.2267 70.0551 25.32 70.1084 25.4C70.1884 25.48 70.2284 25.52 70.2284 25.52Z" fill="white"/>
</svg>
